<?xml version="1.0" encoding="UTF-8" standalone="no"?>
<!DOCTYPE svg PUBLIC "-//W3C//DTD SVG 1.1//EN"
 "http://www.w3.org/Graphics/SVG/1.1/DTD/svg11.dtd">
<!-- Generated by graphviz version 2.38.0 (20140413.2041)
 -->
<!-- Title: %3 Pages: 1 -->
<svg width="2705pt" height="692pt"
 viewBox="0.00 0.00 2705.40 692.00" xmlns="http://www.w3.org/2000/svg" xmlns:xlink="http://www.w3.org/1999/xlink">
<g id="graph0" class="graph" transform="scale(1 1) rotate(0) translate(4 688)">
<title>%3</title>
<polygon fill="white" stroke="none" points="-4,4 -4,-688 2701.4,-688 2701.4,4 -4,4"/>
<!-- Camera -->
<g id="node1" class="node"><title>Camera</title>
<ellipse fill="none" stroke="black" cx="604" cy="-378" rx="38.1938" ry="18"/>
<text text-anchor="middle" x="604" y="-374.3" font-family="Times New Roman,serif" font-size="14.00">Camera</text>
</g>
<!-- CameraFrustum -->
<g id="node2" class="node"><title>CameraFrustum</title>
<ellipse fill="none" stroke="black" cx="535" cy="-306" rx="68.7879" ry="18"/>
<text text-anchor="middle" x="535" y="-302.3" font-family="Times New Roman,serif" font-size="14.00">CameraFrustum</text>
</g>
<!-- Camera&#45;&gt;CameraFrustum -->
<g id="edge1" class="edge"><title>Camera&#45;&gt;CameraFrustum</title>
<path fill="none" stroke="black" d="M584.11,-362.496C574.155,-353.561 562.341,-341.874 552.706,-331.531"/>
<polygon fill="black" stroke="black" points="555.141,-329.005 545.83,-323.951 549.956,-333.709 555.141,-329.005"/>
</g>
<!-- CameraFrustum&#45;&gt;Camera -->
<g id="edge2" class="edge"><title>CameraFrustum&#45;&gt;Camera</title>
<path fill="none" stroke="black" d="M556.797,-323.228C566.468,-332.036 577.587,-343.097 586.688,-352.893"/>
<polygon fill="black" stroke="black" points="584.184,-355.342 593.488,-360.411 589.376,-350.647 584.184,-355.342"/>
</g>
<!-- FlyCamera -->
<g id="node3" class="node"><title>FlyCamera</title>
<ellipse fill="none" stroke="black" cx="590" cy="-450" rx="50.0912" ry="18"/>
<text text-anchor="middle" x="590" y="-446.3" font-family="Times New Roman,serif" font-size="14.00">FlyCamera</text>
</g>
<!-- FlyCamera&#45;&gt;Camera -->
<g id="edge3" class="edge"><title>FlyCamera&#45;&gt;Camera</title>
<path fill="none" stroke="black" d="M593.461,-431.697C595.003,-423.983 596.858,-414.712 598.578,-406.112"/>
<polygon fill="black" stroke="black" points="602.05,-406.597 600.579,-396.104 595.186,-405.224 602.05,-406.597"/>
</g>
<!-- cell -->
<g id="node4" class="node"><title>cell</title>
<ellipse fill="none" stroke="black" cx="1811" cy="-666" rx="27" ry="18"/>
<text text-anchor="middle" x="1811" y="-662.3" font-family="Times New Roman,serif" font-size="14.00">cell</text>
</g>
<!-- cell&#45;&gt;FlyCamera -->
<g id="edge8" class="edge"><title>cell&#45;&gt;FlyCamera</title>
<path fill="none" stroke="black" d="M1783.8,-665.067C1628.49,-665.008 853.737,-658.694 654,-540 629.707,-525.564 612.064,-497.933 601.529,-477.27"/>
<polygon fill="black" stroke="black" points="604.574,-475.527 597.061,-468.057 598.276,-478.582 604.574,-475.527"/>
</g>
<!-- PostProcessor -->
<g id="node5" class="node"><title>PostProcessor</title>
<ellipse fill="none" stroke="black" cx="418" cy="-594" rx="64.189" ry="18"/>
<text text-anchor="middle" x="418" y="-590.3" font-family="Times New Roman,serif" font-size="14.00">PostProcessor</text>
</g>
<!-- cell&#45;&gt;PostProcessor -->
<g id="edge4" class="edge"><title>cell&#45;&gt;PostProcessor</title>
<path fill="none" stroke="black" d="M1784.03,-664.339C1653.2,-661.026 1071.5,-645.055 596,-612 559.936,-609.493 519.849,-605.749 486.862,-602.412"/>
<polygon fill="black" stroke="black" points="487.169,-598.925 476.865,-601.392 486.458,-605.889 487.169,-598.925"/>
</g>
<!-- Renderer -->
<g id="node6" class="node"><title>Renderer</title>
<ellipse fill="none" stroke="black" cx="1275" cy="-522" rx="44.393" ry="18"/>
<text text-anchor="middle" x="1275" y="-518.3" font-family="Times New Roman,serif" font-size="14.00">Renderer</text>
</g>
<!-- cell&#45;&gt;Renderer -->
<g id="edge5" class="edge"><title>cell&#45;&gt;Renderer</title>
<path fill="none" stroke="black" d="M1786.22,-658.436C1702.57,-636.273 1429.73,-563.992 1320.66,-535.097"/>
<polygon fill="black" stroke="black" points="1321.5,-531.698 1310.93,-532.52 1319.7,-538.464 1321.5,-531.698"/>
</g>
<!-- RenderTarget -->
<g id="node7" class="node"><title>RenderTarget</title>
<ellipse fill="none" stroke="black" cx="354" cy="-378" rx="60.3893" ry="18"/>
<text text-anchor="middle" x="354" y="-374.3" font-family="Times New Roman,serif" font-size="14.00">RenderTarget</text>
</g>
<!-- cell&#45;&gt;RenderTarget -->
<g id="edge6" class="edge"><title>cell&#45;&gt;RenderTarget</title>
<path fill="none" stroke="black" d="M1784,-665.09C1586.98,-665.619 376.721,-666.633 324,-612 269.57,-555.595 313.773,-452.562 339.191,-404.7"/>
<polygon fill="black" stroke="black" points="342.278,-406.35 343.99,-395.894 336.132,-403 342.278,-406.35"/>
</g>
<!-- PBRCapture -->
<g id="node8" class="node"><title>PBRCapture</title>
<ellipse fill="none" stroke="black" cx="490" cy="-378" rx="57.3905" ry="18"/>
<text text-anchor="middle" x="490" y="-374.3" font-family="Times New Roman,serif" font-size="14.00">PBRCapture</text>
</g>
<!-- cell&#45;&gt;PBRCapture -->
<g id="edge7" class="edge"><title>cell&#45;&gt;PBRCapture</title>
<path fill="none" stroke="black" d="M1783.76,-665.076C1587.6,-665.496 396.908,-665.819 345,-612 280.373,-544.994 398.867,-444.54 458.598,-400.729"/>
<polygon fill="black" stroke="black" points="460.902,-403.382 466.955,-394.687 456.801,-397.71 460.902,-403.382"/>
</g>
<!-- Resources -->
<g id="node9" class="node"><title>Resources</title>
<ellipse fill="none" stroke="black" cx="914" cy="-234" rx="49.2915" ry="18"/>
<text text-anchor="middle" x="914" y="-230.3" font-family="Times New Roman,serif" font-size="14.00">Resources</text>
</g>
<!-- cell&#45;&gt;Resources -->
<g id="edge9" class="edge"><title>cell&#45;&gt;Resources</title>
<path fill="none" stroke="black" d="M1783.98,-665.004C1585.47,-664.915 358.523,-662.329 300,-612 190.413,-517.758 200.284,-355.672 328,-288 418.08,-240.269 723.913,-234.749 854.31,-234.634"/>
<polygon fill="black" stroke="black" points="854.51,-238.134 864.511,-234.635 854.511,-231.134 854.51,-238.134"/>
</g>
<!-- Mesh -->
<g id="node10" class="node"><title>Mesh</title>
<ellipse fill="none" stroke="black" cx="2103" cy="-90" rx="30.5947" ry="18"/>
<text text-anchor="middle" x="2103" y="-86.3" font-family="Times New Roman,serif" font-size="14.00">Mesh</text>
</g>
<!-- cell&#45;&gt;Mesh -->
<g id="edge10" class="edge"><title>cell&#45;&gt;Mesh</title>
<path fill="none" stroke="black" d="M1831.47,-653.843C1836.43,-651.563 1841.8,-649.427 1847,-648 2010.17,-603.204 2074.2,-686.736 2226,-612 2274.53,-588.11 2309,-577.087 2309,-523 2309,-523 2309,-523 2309,-233 2309,-152.518 2201.09,-114.152 2141.48,-99.0968"/>
<polygon fill="black" stroke="black" points="2142.19,-95.6679 2131.64,-96.7143 2140.54,-102.471 2142.19,-95.6679"/>
</g>
<!-- Quad -->
<g id="node11" class="node"><title>Quad</title>
<ellipse fill="none" stroke="black" cx="2174" cy="-450" rx="30.5947" ry="18"/>
<text text-anchor="middle" x="2174" y="-446.3" font-family="Times New Roman,serif" font-size="14.00">Quad</text>
</g>
<!-- cell&#45;&gt;Quad -->
<g id="edge11" class="edge"><title>cell&#45;&gt;Quad</title>
<path fill="none" stroke="black" d="M1831.5,-653.964C1836.46,-651.679 1841.82,-649.511 1847,-648 1907.64,-630.294 2081.2,-653.305 2129,-612 2167.71,-578.553 2174.45,-514.837 2174.89,-478.392"/>
<polygon fill="black" stroke="black" points="2178.39,-478.008 2174.85,-468.021 2171.39,-478.033 2178.39,-478.008"/>
</g>
<!-- Circle -->
<g id="node12" class="node"><title>Circle</title>
<ellipse fill="none" stroke="black" cx="2369" cy="-522" rx="32.4942" ry="18"/>
<text text-anchor="middle" x="2369" y="-518.3" font-family="Times New Roman,serif" font-size="14.00">Circle</text>
</g>
<!-- cell&#45;&gt;Circle -->
<g id="edge12" class="edge"><title>cell&#45;&gt;Circle</title>
<path fill="none" stroke="black" d="M1831.07,-653.946C1836.13,-651.602 1841.65,-649.413 1847,-648 1949.56,-620.9 2234.54,-670.544 2323,-612 2344.34,-597.876 2356.35,-570.586 2362.7,-549.931"/>
<polygon fill="black" stroke="black" points="2366.12,-550.699 2365.45,-540.126 2359.38,-548.808 2366.12,-550.699"/>
</g>
<!-- LineStrip -->
<g id="node13" class="node"><title>LineStrip</title>
<ellipse fill="none" stroke="black" cx="2419" cy="-234" rx="44.393" ry="18"/>
<text text-anchor="middle" x="2419" y="-230.3" font-family="Times New Roman,serif" font-size="14.00">LineStrip</text>
</g>
<!-- cell&#45;&gt;LineStrip -->
<g id="edge13" class="edge"><title>cell&#45;&gt;LineStrip</title>
<path fill="none" stroke="black" d="M1831.07,-653.93C1836.13,-651.587 1841.65,-649.401 1847,-648 1955.84,-619.493 2251.41,-662.387 2352,-612 2398.77,-588.575 2429,-575.305 2429,-523 2429,-523 2429,-523 2429,-377 2429,-336.897 2424.98,-290.58 2422.04,-262.04"/>
<polygon fill="black" stroke="black" points="2425.51,-261.596 2420.98,-252.022 2418.55,-262.336 2425.51,-261.596"/>
</g>
<!-- Cube -->
<g id="node14" class="node"><title>Cube</title>
<ellipse fill="none" stroke="black" cx="1980" cy="-378" rx="30.5947" ry="18"/>
<text text-anchor="middle" x="1980" y="-374.3" font-family="Times New Roman,serif" font-size="14.00">Cube</text>
</g>
<!-- cell&#45;&gt;Cube -->
<g id="edge14" class="edge"><title>cell&#45;&gt;Cube</title>
<path fill="none" stroke="black" d="M1831.49,-653.922C1836.45,-651.639 1841.82,-649.482 1847,-648 1913.68,-628.941 2101.99,-654.233 2157,-612 2223.56,-560.899 2266.37,-497.564 2214,-432 2201.87,-416.817 2083.08,-395.607 2019.58,-385.224"/>
<polygon fill="black" stroke="black" points="2019.95,-381.738 2009.52,-383.594 2018.83,-388.648 2019.95,-381.738"/>
</g>
<!-- Plane -->
<g id="node15" class="node"><title>Plane</title>
<ellipse fill="none" stroke="black" cx="2490" cy="-522" rx="30.5947" ry="18"/>
<text text-anchor="middle" x="2490" y="-518.3" font-family="Times New Roman,serif" font-size="14.00">Plane</text>
</g>
<!-- cell&#45;&gt;Plane -->
<g id="edge15" class="edge"><title>cell&#45;&gt;Plane</title>
<path fill="none" stroke="black" d="M1831.06,-653.888C1836.12,-651.547 1841.64,-649.372 1847,-648 1975.54,-615.076 2331.48,-683.895 2443,-612 2464.61,-598.069 2476.9,-570.75 2483.45,-550.036"/>
<polygon fill="black" stroke="black" points="2486.88,-550.777 2486.3,-540.198 2480.16,-548.833 2486.88,-550.777"/>
</g>
<!-- Sphere -->
<g id="node16" class="node"><title>Sphere</title>
<ellipse fill="none" stroke="black" cx="1682" cy="-378" rx="36.2938" ry="18"/>
<text text-anchor="middle" x="1682" y="-374.3" font-family="Times New Roman,serif" font-size="14.00">Sphere</text>
</g>
<!-- cell&#45;&gt;Sphere -->
<g id="edge16" class="edge"><title>cell&#45;&gt;Sphere</title>
<path fill="none" stroke="black" d="M1803.51,-648.387C1781.95,-600.603 1719.68,-462.544 1693.65,-404.835"/>
<polygon fill="black" stroke="black" points="1696.82,-403.335 1689.51,-395.659 1690.44,-406.213 1696.82,-403.335"/>
</g>
<!-- Torus -->
<g id="node17" class="node"><title>Torus</title>
<ellipse fill="none" stroke="black" cx="2182" cy="-306" rx="32.4942" ry="18"/>
<text text-anchor="middle" x="2182" y="-302.3" font-family="Times New Roman,serif" font-size="14.00">Torus</text>
</g>
<!-- cell&#45;&gt;Torus -->
<g id="edge17" class="edge"><title>cell&#45;&gt;Torus</title>
<path fill="none" stroke="black" d="M1831.53,-654.037C1836.48,-651.75 1841.84,-649.561 1847,-648 1951.92,-616.252 2010.15,-686.027 2091,-612 2151.66,-556.455 2109.65,-510.564 2134,-432 2144.77,-397.263 2160.3,-358.3 2170.75,-333.249"/>
<polygon fill="black" stroke="black" points="2174.1,-334.309 2174.76,-323.734 2167.65,-331.593 2174.1,-334.309"/>
</g>
<!-- Shader -->
<g id="node18" class="node"><title>Shader</title>
<ellipse fill="none" stroke="black" cx="738" cy="-90" rx="36.2938" ry="18"/>
<text text-anchor="middle" x="738" y="-86.3" font-family="Times New Roman,serif" font-size="14.00">Shader</text>
</g>
<!-- cell&#45;&gt;Shader -->
<g id="edge18" class="edge"><title>cell&#45;&gt;Shader</title>
<path fill="none" stroke="black" d="M1783.94,-664.738C1590.13,-662.774 416.321,-649.393 263,-612 173.577,-590.191 76,-615.044 76,-523 76,-523 76,-523 76,-449 76,-168.604 541.196,-106.737 691.659,-94.0605"/>
<polygon fill="black" stroke="black" points="692.252,-97.5241 701.938,-93.2304 691.689,-90.5468 692.252,-97.5241"/>
</g>
<!-- Material -->
<g id="node19" class="node"><title>Material</title>
<ellipse fill="none" stroke="black" cx="1216" cy="-306" rx="39.7935" ry="18"/>
<text text-anchor="middle" x="1216" y="-302.3" font-family="Times New Roman,serif" font-size="14.00">Material</text>
</g>
<!-- cell&#45;&gt;Material -->
<g id="edge19" class="edge"><title>cell&#45;&gt;Material</title>
<path fill="none" stroke="black" d="M1830.23,-653.295C1897.84,-610.815 2115.42,-461.918 2020,-360 1968.47,-304.957 1433.42,-305.036 1265.88,-306.431"/>
<polygon fill="black" stroke="black" points="1265.81,-302.931 1255.84,-306.52 1265.87,-309.931 1265.81,-302.931"/>
</g>
<!-- Texture -->
<g id="node20" class="node"><title>Texture</title>
<ellipse fill="none" stroke="black" cx="831" cy="-90" rx="38.1938" ry="18"/>
<text text-anchor="middle" x="831" y="-86.3" font-family="Times New Roman,serif" font-size="14.00">Texture</text>
</g>
<!-- cell&#45;&gt;Texture -->
<g id="edge20" class="edge"><title>cell&#45;&gt;Texture</title>
<path fill="none" stroke="black" d="M1784.02,-665.092C1568.46,-665.713 132.531,-667.746 62,-612 29.8587,-586.596 38,-563.969 38,-523 38,-523 38,-523 38,-305 38,-115.833 248.485,-189.896 432,-144 584.133,-105.953 630.006,-142.42 783,-108 786.234,-107.272 789.551,-106.393 792.857,-105.422"/>
<polygon fill="black" stroke="black" points="794.186,-108.672 802.647,-102.295 792.056,-102.004 794.186,-108.672"/>
</g>
<!-- TextureCube -->
<g id="node21" class="node"><title>TextureCube</title>
<ellipse fill="none" stroke="black" cx="476" cy="-90" rx="57.6901" ry="18"/>
<text text-anchor="middle" x="476" y="-86.3" font-family="Times New Roman,serif" font-size="14.00">TextureCube</text>
</g>
<!-- cell&#45;&gt;TextureCube -->
<g id="edge21" class="edge"><title>cell&#45;&gt;TextureCube</title>
<path fill="none" stroke="black" d="M1784,-665.037C1566.72,-665.228 109.708,-664.546 35,-612 0.233994,-587.547 0,-565.504 0,-523 0,-523 0,-523 0,-233 0,-182.949 25.5749,-168.887 69,-144 125.483,-111.63 308.687,-98.4675 408.937,-93.5847"/>
<polygon fill="black" stroke="black" points="409.14,-97.0791 418.963,-93.1105 408.809,-90.0869 409.14,-97.0791"/>
</g>
<!-- Scene -->
<g id="node22" class="node"><title>Scene</title>
<ellipse fill="none" stroke="black" cx="1869" cy="-162" rx="32.4942" ry="18"/>
<text text-anchor="middle" x="1869" y="-158.3" font-family="Times New Roman,serif" font-size="14.00">Scene</text>
</g>
<!-- cell&#45;&gt;Scene -->
<g id="edge22" class="edge"><title>cell&#45;&gt;Scene</title>
<path fill="none" stroke="black" d="M1831.48,-653.878C1836.44,-651.597 1841.81,-649.451 1847,-648 1995.47,-606.497 2058.22,-688.616 2192,-612 2226.48,-592.253 2232.6,-577.752 2245,-540 2252.03,-518.582 2241.25,-438.094 2238,-432 2202.4,-365.272 2038.44,-257.169 1975,-216 1952.25,-201.237 1924.83,-187.626 1903.57,-177.894"/>
<polygon fill="black" stroke="black" points="1904.83,-174.624 1894.28,-173.705 1901.96,-181.006 1904.83,-174.624"/>
</g>
<!-- SceneNode -->
<g id="node23" class="node"><title>SceneNode</title>
<ellipse fill="none" stroke="black" cx="1867" cy="-378" rx="52.7911" ry="18"/>
<text text-anchor="middle" x="1867" y="-374.3" font-family="Times New Roman,serif" font-size="14.00">SceneNode</text>
</g>
<!-- cell&#45;&gt;SceneNode -->
<g id="edge23" class="edge"><title>cell&#45;&gt;SceneNode</title>
<path fill="none" stroke="black" d="M1815.89,-647.899C1818.75,-637.557 1822.32,-624.078 1825,-612 1841.42,-538.017 1855.98,-449.742 1862.83,-406.137"/>
<polygon fill="black" stroke="black" points="1866.32,-406.47 1864.41,-396.05 1859.41,-405.39 1866.32,-406.47"/>
</g>
<!-- Skybox -->
<g id="node24" class="node"><title>Skybox</title>
<ellipse fill="none" stroke="black" cx="1275" cy="-594" rx="38.9931" ry="18"/>
<text text-anchor="middle" x="1275" y="-590.3" font-family="Times New Roman,serif" font-size="14.00">Skybox</text>
</g>
<!-- cell&#45;&gt;Skybox -->
<g id="edge24" class="edge"><title>cell&#45;&gt;Skybox</title>
<path fill="none" stroke="black" d="M1784.78,-661.576C1699.88,-650.488 1431.6,-615.452 1322.17,-601.16"/>
<polygon fill="black" stroke="black" points="1322.46,-597.668 1312.09,-599.843 1321.55,-604.609 1322.46,-597.668"/>
</g>
<!-- PostProcessor&#45;&gt;Camera -->
<g id="edge60" class="edge"><title>PostProcessor&#45;&gt;Camera</title>
<path fill="none" stroke="black" d="M427.307,-576.124C444.865,-545.229 485.25,-478.488 531,-432 543.436,-419.363 559.148,-407.539 572.807,-398.279"/>
<polygon fill="black" stroke="black" points="575.017,-401.014 581.431,-392.582 571.158,-395.174 575.017,-401.014"/>
</g>
<!-- PostProcessor&#45;&gt;Renderer -->
<g id="edge55" class="edge"><title>PostProcessor&#45;&gt;Renderer</title>
<path fill="none" stroke="black" d="M478.641,-587.739C638.741,-574.327 1070.47,-539.074 1221.79,-527.07"/>
<polygon fill="black" stroke="black" points="1222.08,-530.559 1231.77,-526.28 1221.52,-523.581 1222.08,-530.559"/>
</g>
<!-- PostProcessor&#45;&gt;RenderTarget -->
<g id="edge54" class="edge"><title>PostProcessor&#45;&gt;RenderTarget</title>
<path fill="none" stroke="black" d="M412.871,-575.849C401.753,-538.675 375.365,-450.439 362.021,-405.82"/>
<polygon fill="black" stroke="black" points="365.372,-404.81 359.154,-396.232 358.666,-406.816 365.372,-404.81"/>
</g>
<!-- PostProcessor&#45;&gt;Resources -->
<g id="edge57" class="edge"><title>PostProcessor&#45;&gt;Resources</title>
<path fill="none" stroke="black" d="M396.155,-577.013C346.378,-538.609 232.746,-438.522 285,-360 347.947,-265.41 710.341,-242.193 854.689,-236.667"/>
<polygon fill="black" stroke="black" points="854.834,-240.164 864.698,-236.298 854.577,-233.168 854.834,-240.164"/>
</g>
<!-- PostProcessor&#45;&gt;Shader -->
<g id="edge59" class="edge"><title>PostProcessor&#45;&gt;Shader</title>
<path fill="none" stroke="black" d="M360.361,-585.861C293.62,-574.158 186.642,-544 138,-468 59.8418,-345.883 1.71832,-250.592 100,-144 133.476,-107.693 493.79,-112.145 543,-108 594.135,-103.693 652.793,-98.5524 692.307,-95.0598"/>
<polygon fill="black" stroke="black" points="692.77,-98.5326 702.422,-94.1648 692.153,-91.5599 692.77,-98.5326"/>
</g>
<!-- PostProcessor&#45;&gt;Texture -->
<g id="edge58" class="edge"><title>PostProcessor&#45;&gt;Texture</title>
<path fill="none" stroke="black" d="M373.687,-580.781C324.025,-564.378 246.246,-529.884 214,-468 183.241,-408.97 231.04,-336.725 276,-288 368.76,-187.473 418.135,-186.957 548,-144 648.317,-110.817 680.523,-133.752 783,-108 786.172,-107.203 789.43,-106.281 792.683,-105.287"/>
<polygon fill="black" stroke="black" points="793.91,-108.568 802.334,-102.142 791.742,-101.913 793.91,-108.568"/>
</g>
<!-- PBR -->
<g id="node37" class="node"><title>PBR</title>
<ellipse fill="none" stroke="black" cx="950" cy="-450" rx="28.6953" ry="18"/>
<text text-anchor="middle" x="950" y="-446.3" font-family="Times New Roman,serif" font-size="14.00">PBR</text>
</g>
<!-- PostProcessor&#45;&gt;PBR -->
<g id="edge56" class="edge"><title>PostProcessor&#45;&gt;PBR</title>
<path fill="none" stroke="black" d="M469.867,-583.172C561.015,-565.184 755.224,-523.638 913,-468 914.85,-467.348 916.734,-466.637 918.622,-465.888"/>
<polygon fill="black" stroke="black" points="920.13,-469.05 927.968,-461.922 917.395,-462.607 920.13,-469.05"/>
</g>
<!-- Renderer&#45;&gt;Camera -->
<g id="edge71" class="edge"><title>Renderer&#45;&gt;Camera</title>
<path fill="none" stroke="black" d="M1231.36,-518.756C1124.1,-512.879 850.003,-495.556 763,-468 713.867,-452.439 662.875,-420.639 632.289,-399.571"/>
<polygon fill="black" stroke="black" points="634.051,-396.532 623.849,-393.671 630.04,-402.269 634.051,-396.532"/>
</g>
<!-- Renderer&#45;&gt;FlyCamera -->
<g id="edge72" class="edge"><title>Renderer&#45;&gt;FlyCamera</title>
<path fill="none" stroke="black" d="M1231.73,-518.174C1134.83,-511.603 893.101,-493.863 692,-468 676.225,-465.971 659.153,-463.311 643.57,-460.699"/>
<polygon fill="black" stroke="black" points="644.019,-457.225 633.574,-458.996 642.844,-464.125 644.019,-457.225"/>
</g>
<!-- Renderer&#45;&gt;PostProcessor -->
<g id="edge64" class="edge"><title>Renderer&#45;&gt;PostProcessor</title>
<path fill="none" stroke="black" d="M1232.22,-526.761C1094.37,-538.384 661.348,-573.769 489.365,-587.485"/>
<polygon fill="black" stroke="black" points="488.847,-584.015 479.157,-588.298 489.403,-590.993 488.847,-584.015"/>
</g>
<!-- Renderer&#45;&gt;RenderTarget -->
<g id="edge61" class="edge"><title>Renderer&#45;&gt;RenderTarget</title>
<path fill="none" stroke="black" d="M1230.78,-520.736C1086.36,-519.442 630.69,-511.875 492,-468 447.34,-453.872 402.167,-423.596 375.985,-402.294"/>
<polygon fill="black" stroke="black" points="378.082,-399.484 368.177,-395.725 373.576,-404.841 378.082,-399.484"/>
</g>
<!-- Renderer&#45;&gt;PBRCapture -->
<g id="edge78" class="edge"><title>Renderer&#45;&gt;PBRCapture</title>
<path fill="none" stroke="black" d="M1230.92,-520.444C1079.77,-518.186 588.577,-507.824 531,-468 510.413,-453.761 499.947,-426.488 494.768,-405.868"/>
<polygon fill="black" stroke="black" points="498.177,-405.074 492.573,-396.082 491.347,-406.606 498.177,-405.074"/>
</g>
<!-- Renderer&#45;&gt;Resources -->
<g id="edge73" class="edge"><title>Renderer&#45;&gt;Resources</title>
<path fill="none" stroke="black" d="M1231.08,-519.275C1185.44,-515.494 1113.87,-503.784 1064,-468 1025.28,-440.217 956.662,-315.903 927.605,-261.097"/>
<polygon fill="black" stroke="black" points="930.574,-259.225 922.814,-252.013 924.383,-262.491 930.574,-259.225"/>
</g>
<!-- Renderer&#45;&gt;Mesh -->
<g id="edge65" class="edge"><title>Renderer&#45;&gt;Mesh</title>
<path fill="none" stroke="black" d="M1319.1,-520.779C1414.51,-519.468 1636.23,-511.67 1695,-468 1755.25,-423.232 1746,-382.06 1746,-307 1746,-307 1746,-307 1746,-233 1746,-179.215 1781.02,-170.179 1828,-144 1903.21,-102.091 2005.96,-92.8013 2062.16,-91.0567"/>
<polygon fill="black" stroke="black" points="2062.51,-94.5492 2072.42,-90.8067 2062.34,-87.5513 2062.51,-94.5492"/>
</g>
<!-- Renderer&#45;&gt;Quad -->
<g id="edge76" class="edge"><title>Renderer&#45;&gt;Quad</title>
<path fill="none" stroke="black" d="M1318.06,-517.647C1470.77,-505.756 1985.27,-465.695 2133.64,-454.143"/>
<polygon fill="black" stroke="black" points="2133.98,-457.627 2143.68,-453.361 2133.44,-450.648 2133.98,-457.627"/>
</g>
<!-- Renderer&#45;&gt;Cube -->
<g id="edge66" class="edge"><title>Renderer&#45;&gt;Cube</title>
<path fill="none" stroke="black" d="M1318.8,-519.119C1431.49,-513.906 1729.12,-497.664 1823,-468 1872.49,-452.362 1923.67,-419.698 1953.63,-398.589"/>
<polygon fill="black" stroke="black" points="1955.76,-401.367 1961.86,-392.704 1951.69,-395.674 1955.76,-401.367"/>
</g>
<!-- Renderer&#45;&gt;Sphere -->
<g id="edge67" class="edge"><title>Renderer&#45;&gt;Sphere</title>
<path fill="none" stroke="black" d="M1319.28,-521.702C1412.62,-522.174 1624.92,-517.625 1673,-468 1688.57,-451.927 1689.47,-425.749 1687.27,-405.935"/>
<polygon fill="black" stroke="black" points="1690.73,-405.373 1685.86,-395.964 1683.8,-406.357 1690.73,-405.373"/>
</g>
<!-- Renderer&#45;&gt;Material -->
<g id="edge68" class="edge"><title>Renderer&#45;&gt;Material</title>
<path fill="none" stroke="black" d="M1316.26,-515.53C1375.99,-505.8 1475.89,-481.658 1442,-432 1417.25,-395.734 1388.95,-416.261 1350,-396 1311.49,-375.969 1270.35,-347.454 1243.96,-328.141"/>
<polygon fill="black" stroke="black" points="1245.73,-325.095 1235.61,-321.969 1241.57,-330.725 1245.73,-325.095"/>
</g>
<!-- Renderer&#45;&gt;Scene -->
<g id="edge69" class="edge"><title>Renderer&#45;&gt;Scene</title>
<path fill="none" stroke="black" d="M1318.71,-518.669C1429.54,-512.403 1715.19,-493.9 1749,-468 1772.47,-450.026 1836.89,-260.305 1860.33,-189.473"/>
<polygon fill="black" stroke="black" points="1863.67,-190.512 1863.48,-179.919 1857.02,-188.32 1863.67,-190.512"/>
</g>
<!-- Renderer&#45;&gt;SceneNode -->
<g id="edge70" class="edge"><title>Renderer&#45;&gt;SceneNode</title>
<path fill="none" stroke="black" d="M1319.34,-520.454C1428.2,-518.477 1705.67,-509.403 1787,-468 1815.03,-453.732 1837.88,-425.219 1851.88,-404.296"/>
<polygon fill="black" stroke="black" points="1854.84,-406.158 1857.33,-395.858 1848.96,-402.362 1854.84,-406.158"/>
</g>
<!-- DirectionalLight -->
<g id="node30" class="node"><title>DirectionalLight</title>
<ellipse fill="none" stroke="black" cx="1141" cy="-450" rx="68.4888" ry="18"/>
<text text-anchor="middle" x="1141" y="-446.3" font-family="Times New Roman,serif" font-size="14.00">DirectionalLight</text>
</g>
<!-- Renderer&#45;&gt;DirectionalLight -->
<g id="edge75" class="edge"><title>Renderer&#45;&gt;DirectionalLight</title>
<path fill="none" stroke="black" d="M1248.85,-507.337C1229.03,-496.986 1201.51,-482.609 1179.23,-470.969"/>
<polygon fill="black" stroke="black" points="1180.83,-467.86 1170.35,-466.332 1177.59,-474.065 1180.83,-467.86"/>
</g>
<!-- PointLight -->
<g id="node31" class="node"><title>PointLight</title>
<ellipse fill="none" stroke="black" cx="1275" cy="-450" rx="48.1917" ry="18"/>
<text text-anchor="middle" x="1275" y="-446.3" font-family="Times New Roman,serif" font-size="14.00">PointLight</text>
</g>
<!-- Renderer&#45;&gt;PointLight -->
<g id="edge74" class="edge"><title>Renderer&#45;&gt;PointLight</title>
<path fill="none" stroke="black" d="M1275,-503.697C1275,-495.983 1275,-486.712 1275,-478.112"/>
<polygon fill="black" stroke="black" points="1278.5,-478.104 1275,-468.104 1271.5,-478.104 1278.5,-478.104"/>
</g>
<!-- CommandBuffer -->
<g id="node32" class="node"><title>CommandBuffer</title>
<ellipse fill="none" stroke="black" cx="1560" cy="-450" rx="71.4873" ry="18"/>
<text text-anchor="middle" x="1560" y="-446.3" font-family="Times New Roman,serif" font-size="14.00">CommandBuffer</text>
</g>
<!-- Renderer&#45;&gt;CommandBuffer -->
<g id="edge77" class="edge"><title>Renderer&#45;&gt;CommandBuffer</title>
<path fill="none" stroke="black" d="M1310.36,-511.119C1357.3,-499.031 1440.7,-478.495 1498.15,-464.839"/>
<polygon fill="black" stroke="black" points="1499.28,-468.169 1508.2,-462.457 1497.66,-461.357 1499.28,-468.169"/>
</g>
<!-- GLCache -->
<g id="node34" class="node"><title>GLCache</title>
<ellipse fill="none" stroke="black" cx="1387" cy="-450" rx="46.2923" ry="18"/>
<text text-anchor="middle" x="1387" y="-446.3" font-family="Times New Roman,serif" font-size="14.00">GLCache</text>
</g>
<!-- Renderer&#45;&gt;GLCache -->
<g id="edge79" class="edge"><title>Renderer&#45;&gt;GLCache</title>
<path fill="none" stroke="black" d="M1298.21,-506.496C1314.62,-496.24 1336.82,-482.36 1354.93,-471.047"/>
<polygon fill="black" stroke="black" points="1356.81,-473.994 1363.44,-465.726 1353.1,-468.058 1356.81,-473.994"/>
</g>
<!-- MaterialLibrary -->
<g id="node35" class="node"><title>MaterialLibrary</title>
<ellipse fill="none" stroke="black" cx="838" cy="-450" rx="65.7887" ry="18"/>
<text text-anchor="middle" x="838" y="-446.3" font-family="Times New Roman,serif" font-size="14.00">MaterialLibrary</text>
</g>
<!-- Renderer&#45;&gt;MaterialLibrary -->
<g id="edge62" class="edge"><title>Renderer&#45;&gt;MaterialLibrary</title>
<path fill="none" stroke="black" d="M1233.17,-516.009C1165.43,-507.677 1027.65,-489.69 912,-468 906.656,-466.998 901.112,-465.877 895.573,-464.702"/>
<polygon fill="black" stroke="black" points="896.165,-461.249 885.65,-462.543 894.677,-468.089 896.165,-461.249"/>
</g>
<!-- Renderer&#45;&gt;PBR -->
<g id="edge63" class="edge"><title>Renderer&#45;&gt;PBR</title>
<path fill="none" stroke="black" d="M1232.58,-516.399C1175.15,-509.063 1070.39,-492.947 984,-468 982.554,-467.582 981.089,-467.135 979.619,-466.664"/>
<polygon fill="black" stroke="black" points="980.594,-463.297 969.999,-463.286 978.275,-469.901 980.594,-463.297"/>
</g>
<!-- RenderTarget&#45;&gt;Renderer -->
<g id="edge80" class="edge"><title>RenderTarget&#45;&gt;Renderer</title>
<path fill="none" stroke="black" d="M378.748,-394.468C408.366,-415.418 459.511,-452.028 510,-468 643.221,-510.145 1068.92,-518.789 1220.7,-520.552"/>
<polygon fill="black" stroke="black" points="1220.68,-524.052 1230.72,-520.663 1220.76,-517.052 1220.68,-524.052"/>
</g>
<!-- RenderTarget&#45;&gt;Texture -->
<g id="edge81" class="edge"><title>RenderTarget&#45;&gt;Texture</title>
<path fill="none" stroke="black" d="M366.792,-360.237C400.906,-316.821 498.982,-200.188 609,-144 679.33,-108.081 706.936,-129.231 783,-108 786.108,-107.132 789.305,-106.167 792.504,-105.148"/>
<polygon fill="black" stroke="black" points="793.631,-108.462 802.012,-101.981 791.419,-101.821 793.631,-108.462"/>
</g>
<!-- PBRCapture&#45;&gt;TextureCube -->
<g id="edge53" class="edge"><title>PBRCapture&#45;&gt;TextureCube</title>
<path fill="none" stroke="black" d="M476.36,-360.505C469.064,-350.59 460.814,-337.34 457,-324 436.293,-251.567 455.603,-161.677 467.786,-117.725"/>
<polygon fill="black" stroke="black" points="471.162,-118.651 470.554,-108.073 464.433,-116.721 471.162,-118.651"/>
</g>
<!-- Resources&#45;&gt;Mesh -->
<g id="edge98" class="edge"><title>Resources&#45;&gt;Mesh</title>
<path fill="none" stroke="black" d="M954.48,-223.554C1048.37,-201.698 1275.65,-149.114 1311,-144 1596.35,-102.717 1944.28,-93.5126 2061.91,-91.527"/>
<polygon fill="black" stroke="black" points="2062.3,-95.0213 2072.24,-91.3614 2062.19,-88.0222 2062.3,-95.0213"/>
</g>
<!-- Resources&#45;&gt;Shader -->
<g id="edge94" class="edge"><title>Resources&#45;&gt;Shader</title>
<path fill="none" stroke="black" d="M916.967,-215.772C919.322,-196.083 919.85,-164.005 903,-144 867.403,-101.738 836.383,-125.585 784,-108 781.276,-107.086 778.471,-106.117 775.653,-105.124"/>
<polygon fill="black" stroke="black" points="776.719,-101.788 766.124,-101.699 774.351,-108.375 776.719,-101.788"/>
</g>
<!-- Resources&#45;&gt;Material -->
<g id="edge95" class="edge"><title>Resources&#45;&gt;Material</title>
<path fill="none" stroke="black" d="M955.234,-244.106C965.373,-246.744 976.099,-249.568 986,-252 1050.46,-267.837 1125.23,-284.077 1171.69,-294.334"/>
<polygon fill="black" stroke="black" points="1171.21,-297.812 1181.73,-296.556 1172.72,-290.978 1171.21,-297.812"/>
</g>
<!-- Resources&#45;&gt;Texture -->
<g id="edge96" class="edge"><title>Resources&#45;&gt;Texture</title>
<path fill="none" stroke="black" d="M961.817,-229.272C1036.51,-221.66 1167.72,-200.033 1121,-144 1090.79,-107.771 953.733,-96.2362 879.359,-92.6174"/>
<polygon fill="black" stroke="black" points="879.448,-89.1179 869.298,-92.1576 879.128,-96.1106 879.448,-89.1179"/>
</g>
<!-- Resources&#45;&gt;TextureCube -->
<g id="edge97" class="edge"><title>Resources&#45;&gt;TextureCube</title>
<path fill="none" stroke="black" d="M877.076,-221.877C844.976,-211.891 797.41,-196.327 757,-180 722.346,-165.999 716.139,-156.735 681,-144 632.15,-126.296 574.749,-111.985 533.132,-102.717"/>
<polygon fill="black" stroke="black" points="533.691,-99.2567 523.173,-100.528 532.188,-106.094 533.691,-99.2567"/>
</g>
<!-- Resources&#45;&gt;Scene -->
<g id="edge91" class="edge"><title>Resources&#45;&gt;Scene</title>
<path fill="none" stroke="black" d="M962.013,-229.481C1127.29,-217.366 1671.07,-177.508 1826.91,-166.085"/>
<polygon fill="black" stroke="black" points="1827.32,-169.565 1837.03,-165.343 1826.8,-162.584 1827.32,-169.565"/>
</g>
<!-- Resources&#45;&gt;SceneNode -->
<g id="edge92" class="edge"><title>Resources&#45;&gt;SceneNode</title>
<path fill="none" stroke="black" d="M948.194,-247.096C1016.64,-271.298 1164.2,-323.429 1167,-324 1411.37,-373.849 1478.66,-336.959 1727,-360 1754,-362.505 1783.84,-366.024 1809.01,-369.211"/>
<polygon fill="black" stroke="black" points="1808.76,-372.708 1819.12,-370.506 1809.65,-365.764 1808.76,-372.708"/>
</g>
<!-- Utils -->
<g id="node36" class="node"><title>Utils</title>
<ellipse fill="none" stroke="black" cx="645" cy="-162" rx="27.0966" ry="18"/>
<text text-anchor="middle" x="645" y="-158.3" font-family="Times New Roman,serif" font-size="14.00">Utils</text>
</g>
<!-- Resources&#45;&gt;Utils -->
<g id="edge93" class="edge"><title>Resources&#45;&gt;Utils</title>
<path fill="none" stroke="black" d="M870.563,-225.117C824.257,-216.202 749.069,-200.253 686,-180 682.845,-178.987 679.594,-177.835 676.366,-176.618"/>
<polygon fill="black" stroke="black" points="677.466,-173.289 666.881,-172.853 674.884,-179.795 677.466,-173.289"/>
</g>
<!-- MeshLoader -->
<g id="node38" class="node"><title>MeshLoader</title>
<ellipse fill="none" stroke="black" cx="1377" cy="-162" rx="56.59" ry="18"/>
<text text-anchor="middle" x="1377" y="-158.3" font-family="Times New Roman,serif" font-size="14.00">MeshLoader</text>
</g>
<!-- Resources&#45;&gt;MeshLoader -->
<g id="edge90" class="edge"><title>Resources&#45;&gt;MeshLoader</title>
<path fill="none" stroke="black" d="M960.339,-227.627C1032.66,-219.493 1176.16,-202.576 1297,-180 1304.88,-178.527 1313.21,-176.744 1321.41,-174.894"/>
<polygon fill="black" stroke="black" points="1322.35,-178.269 1331.31,-172.62 1320.78,-171.446 1322.35,-178.269"/>
</g>
<!-- ShaderLoader -->
<g id="node39" class="node"><title>ShaderLoader</title>
<ellipse fill="none" stroke="black" cx="1050" cy="-162" rx="61.99" ry="18"/>
<text text-anchor="middle" x="1050" y="-158.3" font-family="Times New Roman,serif" font-size="14.00">ShaderLoader</text>
</g>
<!-- Resources&#45;&gt;ShaderLoader -->
<g id="edge88" class="edge"><title>Resources&#45;&gt;ShaderLoader</title>
<path fill="none" stroke="black" d="M941.522,-218.834C961.714,-208.441 989.394,-194.195 1011.74,-182.694"/>
<polygon fill="black" stroke="black" points="1013.35,-185.802 1020.64,-178.114 1010.14,-179.578 1013.35,-185.802"/>
</g>
<!-- TextureLoader -->
<g id="node40" class="node"><title>TextureLoader</title>
<ellipse fill="none" stroke="black" cx="830" cy="-162" rx="64.189" ry="18"/>
<text text-anchor="middle" x="830" y="-158.3" font-family="Times New Roman,serif" font-size="14.00">TextureLoader</text>
</g>
<!-- Resources&#45;&gt;TextureLoader -->
<g id="edge89" class="edge"><title>Resources&#45;&gt;TextureLoader</title>
<path fill="none" stroke="black" d="M894.939,-217.116C883.821,-207.851 869.609,-196.008 857.317,-185.764"/>
<polygon fill="black" stroke="black" points="859.491,-183.02 849.568,-179.307 855.01,-188.398 859.491,-183.02"/>
</g>
<!-- Quad&#45;&gt;Mesh -->
<g id="edge29" class="edge"><title>Quad&#45;&gt;Mesh</title>
<path fill="none" stroke="black" d="M2187.11,-433.556C2206.87,-408.648 2242,-357.294 2242,-307 2242,-307 2242,-307 2242,-233 2242,-172.511 2176.79,-128.267 2135.7,-106.392"/>
<polygon fill="black" stroke="black" points="2137.07,-103.161 2126.58,-101.69 2133.86,-109.383 2137.07,-103.161"/>
</g>
<!-- Circle&#45;&gt;Mesh -->
<g id="edge25" class="edge"><title>Circle&#45;&gt;Mesh</title>
<path fill="none" stroke="black" d="M2364.65,-504.082C2358.24,-477.599 2347,-424.653 2347,-379 2347,-379 2347,-379 2347,-233 2347,-192.031 2352.36,-172.576 2323,-144 2297.62,-119.299 2198.89,-103.104 2142.7,-95.6845"/>
<polygon fill="black" stroke="black" points="2143.09,-92.2066 2132.73,-94.4012 2142.2,-99.1494 2143.09,-92.2066"/>
</g>
<!-- LineStrip&#45;&gt;Mesh -->
<g id="edge27" class="edge"><title>LineStrip&#45;&gt;Mesh</title>
<path fill="none" stroke="black" d="M2412.68,-215.952C2404.19,-195.499 2387.07,-161.753 2361,-144 2325.92,-120.104 2206.02,-102.992 2142.78,-95.3925"/>
<polygon fill="black" stroke="black" points="2143.11,-91.9074 2132.77,-94.2123 2142.29,-98.8593 2143.11,-91.9074"/>
</g>
<!-- Cube&#45;&gt;Mesh -->
<g id="edge26" class="edge"><title>Cube&#45;&gt;Mesh</title>
<path fill="none" stroke="black" d="M1999.11,-363.944C2026.87,-343.714 2077.27,-301.882 2098,-252 2116.22,-208.149 2112.47,-151.636 2107.88,-118.552"/>
<polygon fill="black" stroke="black" points="2111.28,-117.643 2106.32,-108.282 2104.36,-118.694 2111.28,-117.643"/>
</g>
<!-- Plane&#45;&gt;Mesh -->
<g id="edge28" class="edge"><title>Plane&#45;&gt;Mesh</title>
<path fill="none" stroke="black" d="M2490.2,-503.951C2490.49,-477.292 2491,-424.116 2491,-379 2491,-379 2491,-379 2491,-233 2491,-173.834 2445.1,-170.098 2392,-144 2310.33,-103.86 2202.14,-93.9265 2144.06,-91.5925"/>
<polygon fill="black" stroke="black" points="2143.92,-88.086 2133.81,-91.2396 2143.68,-95.0819 2143.92,-88.086"/>
</g>
<!-- Sphere&#45;&gt;Mesh -->
<g id="edge30" class="edge"><title>Sphere&#45;&gt;Mesh</title>
<path fill="none" stroke="black" d="M1679.78,-359.831C1675.23,-316.462 1669.98,-201.853 1732,-144 1779.16,-100.011 1975.74,-92.3681 2062.05,-91.1586"/>
<polygon fill="black" stroke="black" points="2062.3,-94.656 2072.26,-91.0386 2062.22,-87.6565 2062.3,-94.656"/>
</g>
<!-- Torus&#45;&gt;Mesh -->
<g id="edge31" class="edge"><title>Torus&#45;&gt;Mesh</title>
<path fill="none" stroke="black" d="M2178.78,-288.008C2172.74,-258.042 2158.28,-194.221 2136,-144 2131.69,-134.293 2125.85,-124.254 2120.28,-115.558"/>
<polygon fill="black" stroke="black" points="2123.08,-113.457 2114.64,-107.053 2117.25,-117.323 2123.08,-113.457"/>
</g>
<!-- ShadingTypes -->
<g id="node41" class="node"><title>ShadingTypes</title>
<ellipse fill="none" stroke="black" cx="996" cy="-18" rx="63.0888" ry="18"/>
<text text-anchor="middle" x="996" y="-14.3" font-family="Times New Roman,serif" font-size="14.00">ShadingTypes</text>
</g>
<!-- Shader&#45;&gt;ShadingTypes -->
<g id="edge121" class="edge"><title>Shader&#45;&gt;ShadingTypes</title>
<path fill="none" stroke="black" d="M766.053,-78.0807C771.942,-75.9445 778.143,-73.8086 784,-72 835.178,-56.1976 894.386,-41.7054 937.201,-31.8845"/>
<polygon fill="black" stroke="black" points="938.197,-35.2474 947.17,-29.6143 936.642,-28.4222 938.197,-35.2474"/>
</g>
<!-- Material&#45;&gt;Resources -->
<g id="edge116" class="edge"><title>Material&#45;&gt;Resources</title>
<path fill="none" stroke="black" d="M1179.49,-298.665C1130.76,-289.143 1042.5,-270.302 968,-252 964.81,-251.216 961.533,-250.392 958.245,-249.546"/>
<polygon fill="black" stroke="black" points="958.978,-246.12 948.417,-246.964 957.2,-252.89 958.978,-246.12"/>
</g>
<!-- Material&#45;&gt;Shader -->
<g id="edge118" class="edge"><title>Material&#45;&gt;Shader</title>
<path fill="none" stroke="black" d="M1211.53,-288.029C1201.62,-254.13 1174.35,-178.349 1121,-144 1057.68,-103.227 857.328,-125.185 784,-108 780.85,-107.262 777.622,-106.368 774.408,-105.381"/>
<polygon fill="black" stroke="black" points="775.495,-102.055 764.901,-102.205 773.276,-108.694 775.495,-102.055"/>
</g>
<!-- Material&#45;&gt;Texture -->
<g id="edge119" class="edge"><title>Material&#45;&gt;Texture</title>
<path fill="none" stroke="black" d="M1219.29,-288.058C1224.58,-255.216 1230.81,-182.724 1192,-144 1148.97,-101.069 967.599,-92.7196 879.47,-91.2299"/>
<polygon fill="black" stroke="black" points="879.505,-87.7301 869.455,-91.0835 879.402,-94.7294 879.505,-87.7301"/>
</g>
<!-- Material&#45;&gt;TextureCube -->
<g id="edge120" class="edge"><title>Material&#45;&gt;TextureCube</title>
<path fill="none" stroke="black" d="M1191.05,-291.866C1119.61,-254.289 918.346,-148.735 903,-144 837.095,-123.665 644.098,-105.09 541.647,-96.3163"/>
<polygon fill="black" stroke="black" points="541.681,-92.8067 531.421,-95.4474 541.089,-99.7815 541.681,-92.8067"/>
</g>
<!-- Material&#45;&gt;ShadingTypes -->
<g id="edge117" class="edge"><title>Material&#45;&gt;ShadingTypes</title>
<path fill="none" stroke="black" d="M1224.5,-288.306C1229.21,-278.108 1234.59,-264.638 1237,-252 1246.15,-204.05 1247.06,-182.459 1217,-144 1173.39,-88.2103 1097.48,-53.216 1046.99,-34.8871"/>
<polygon fill="black" stroke="black" points="1048.15,-31.5864 1037.56,-31.5499 1045.82,-38.1854 1048.15,-31.5864"/>
</g>
<!-- Scene&#45;&gt;Mesh -->
<g id="edge103" class="edge"><title>Scene&#45;&gt;Mesh</title>
<path fill="none" stroke="black" d="M1897.23,-152.556C1939.69,-139.852 2020.02,-115.825 2066.76,-101.842"/>
<polygon fill="black" stroke="black" points="2067.9,-105.154 2076.48,-98.9344 2065.89,-98.4472 2067.9,-105.154"/>
</g>
<!-- Scene&#45;&gt;Material -->
<g id="edge104" class="edge"><title>Scene&#45;&gt;Material</title>
<path fill="none" stroke="black" d="M1839.1,-169.503C1734.72,-192.2 1386.14,-268.002 1261.11,-295.19"/>
<polygon fill="black" stroke="black" points="1260.14,-291.82 1251.11,-297.365 1261.62,-298.661 1260.14,-291.82"/>
</g>
<!-- Scene&#45;&gt;SceneNode -->
<g id="edge102" class="edge"><title>Scene&#45;&gt;SceneNode</title>
<path fill="none" stroke="black" d="M1872.7,-179.935C1875.91,-216.847 1875.37,-304.825 1871.94,-349.685"/>
<polygon fill="black" stroke="black" points="1868.44,-349.578 1871.04,-359.849 1875.41,-350.199 1868.44,-349.578"/>
</g>
<!-- SceneNode&#45;&gt;Mesh -->
<g id="edge106" class="edge"><title>SceneNode&#45;&gt;Mesh</title>
<path fill="none" stroke="black" d="M1880.71,-360.387C1920.66,-311.967 2037.11,-170.851 2083.55,-114.572"/>
<polygon fill="black" stroke="black" points="2086.46,-116.54 2090.13,-106.6 2081.06,-112.085 2086.46,-116.54"/>
</g>
<!-- SceneNode&#45;&gt;Material -->
<g id="edge107" class="edge"><title>SceneNode&#45;&gt;Material</title>
<path fill="none" stroke="black" d="M1818.43,-370.891C1791.5,-367.557 1757.41,-363.423 1727,-360 1557.17,-340.883 1355.29,-320.691 1264.48,-311.743"/>
<polygon fill="black" stroke="black" points="1264.78,-308.256 1254.49,-310.76 1264.1,-315.222 1264.78,-308.256"/>
</g>
<!-- SceneNode&#45;&gt;Scene -->
<g id="edge105" class="edge"><title>SceneNode&#45;&gt;Scene</title>
<path fill="none" stroke="black" d="M1863.28,-359.849C1860.08,-322.74 1860.64,-234.747 1864.08,-190.054"/>
<polygon fill="black" stroke="black" points="1867.58,-190.208 1864.98,-179.935 1860.61,-189.583 1867.58,-190.208"/>
</g>
<!-- Skybox&#45;&gt;Renderer -->
<g id="edge109" class="edge"><title>Skybox&#45;&gt;Renderer</title>
<path fill="none" stroke="black" d="M1275,-575.697C1275,-567.983 1275,-558.712 1275,-550.112"/>
<polygon fill="black" stroke="black" points="1278.5,-550.104 1275,-540.104 1271.5,-550.104 1278.5,-550.104"/>
</g>
<!-- Skybox&#45;&gt;Resources -->
<g id="edge110" class="edge"><title>Skybox&#45;&gt;Resources</title>
<path fill="none" stroke="black" d="M1237.09,-589.662C1128.85,-579.27 822.334,-543.563 763,-468 704.975,-394.104 822.844,-297.663 882.399,-255.846"/>
<polygon fill="black" stroke="black" points="884.5,-258.648 890.734,-250.082 880.519,-252.891 884.5,-258.648"/>
</g>
<!-- Skybox&#45;&gt;Cube -->
<g id="edge114" class="edge"><title>Skybox&#45;&gt;Cube</title>
<path fill="none" stroke="black" d="M1313.92,-592.144C1389.32,-589.611 1559.91,-579.591 1697,-540 1769.59,-519.037 1785.46,-505.584 1851,-468 1888.32,-446.599 1928.76,-417.68 1954.22,-398.695"/>
<polygon fill="black" stroke="black" points="1956.36,-401.466 1962.25,-392.663 1952.15,-395.868 1956.36,-401.466"/>
</g>
<!-- Skybox&#45;&gt;Shader -->
<g id="edge111" class="edge"><title>Skybox&#45;&gt;Shader</title>
<path fill="none" stroke="black" d="M1236.02,-591.946C1138.45,-588.773 886.163,-577.111 812,-540 687.088,-477.494 612.073,-193.796 609,-180 605.521,-164.383 600.092,-157.291 609,-144 627.571,-116.293 663.509,-103.058 692.747,-96.7432"/>
<polygon fill="black" stroke="black" points="693.626,-100.138 702.769,-94.7856 692.284,-93.2675 693.626,-100.138"/>
</g>
<!-- Skybox&#45;&gt;Material -->
<g id="edge112" class="edge"><title>Skybox&#45;&gt;Material</title>
<path fill="none" stroke="black" d="M1241.51,-584.461C1192.33,-569.91 1102.26,-535.141 1064,-468 1028.92,-406.436 1123.17,-350.055 1178.69,-323.313"/>
<polygon fill="black" stroke="black" points="1180.34,-326.401 1187.9,-318.974 1177.36,-320.068 1180.34,-326.401"/>
</g>
<!-- Skybox&#45;&gt;TextureCube -->
<g id="edge113" class="edge"><title>Skybox&#45;&gt;TextureCube</title>
<path fill="none" stroke="black" d="M1236.38,-591.333C1043.1,-581.966 190,-528.101 190,-307 190,-307 190,-307 190,-233 190,-135.515 324.952,-104.955 409.453,-95.3746"/>
<polygon fill="black" stroke="black" points="409.922,-98.8446 419.496,-94.3072 409.182,-91.8838 409.922,-98.8446"/>
</g>
<!-- Skybox&#45;&gt;Scene -->
<g id="edge108" class="edge"><title>Skybox&#45;&gt;Scene</title>
<path fill="none" stroke="black" d="M1314.11,-593.615C1397.48,-593.871 1598.07,-588.85 1757,-540 1822.37,-519.906 1833.02,-500.869 1893,-468 1949.9,-436.817 1987.34,-452.064 2020,-396 2067.56,-314.36 1953.76,-221.14 1897.82,-181.936"/>
<polygon fill="black" stroke="black" points="1899.59,-178.908 1889.37,-176.118 1895.62,-184.673 1899.59,-178.908"/>
</g>
<!-- Skybox&#45;&gt;SceneNode -->
<g id="edge115" class="edge"><title>Skybox&#45;&gt;SceneNode</title>
<path fill="none" stroke="black" d="M1312.35,-588.682C1422.31,-575.335 1742.18,-531.765 1823,-468 1842.59,-452.545 1854.09,-426.109 1860.39,-406.053"/>
<polygon fill="black" stroke="black" points="1863.82,-406.818 1863.23,-396.239 1857.09,-404.875 1863.82,-406.818"/>
</g>
<!-- EnginePlayground -->
<g id="node25" class="node"><title>EnginePlayground</title>
<ellipse fill="none" stroke="black" cx="1933" cy="-666" rx="76.8869" ry="18"/>
<text text-anchor="middle" x="1933" y="-662.3" font-family="Times New Roman,serif" font-size="14.00">EnginePlayground</text>
</g>
<!-- imgui_demo -->
<g id="node26" class="node"><title>imgui_demo</title>
<ellipse fill="none" stroke="black" cx="2084" cy="-666" rx="55.7903" ry="18"/>
<text text-anchor="middle" x="2084" y="-662.3" font-family="Times New Roman,serif" font-size="14.00">imgui_demo</text>
</g>
<!-- imgui_impl_opengl3 -->
<g id="node27" class="node"><title>imgui_impl_opengl3</title>
<ellipse fill="none" stroke="black" cx="2242" cy="-666" rx="84.485" ry="18"/>
<text text-anchor="middle" x="2242" y="-662.3" font-family="Times New Roman,serif" font-size="14.00">imgui_impl_opengl3</text>
</g>
<!-- imgui_impl_sdl -->
<g id="node28" class="node"><title>imgui_impl_sdl</title>
<ellipse fill="none" stroke="black" cx="2411" cy="-666" rx="66.0889" ry="18"/>
<text text-anchor="middle" x="2411" y="-662.3" font-family="Times New Roman,serif" font-size="14.00">imgui_impl_sdl</text>
</g>
<!-- imgui_stdlib -->
<g id="node29" class="node"><title>imgui_stdlib</title>
<ellipse fill="none" stroke="black" cx="2551" cy="-666" rx="55.4913" ry="18"/>
<text text-anchor="middle" x="2551" y="-662.3" font-family="Times New Roman,serif" font-size="14.00">imgui_stdlib</text>
</g>
<!-- CommandBuffer&#45;&gt;Camera -->
<g id="edge33" class="edge"><title>CommandBuffer&#45;&gt;Camera</title>
<path fill="none" stroke="black" d="M1501.29,-439.599C1482.4,-436.827 1461.35,-434.003 1442,-432 1142.65,-401.02 781.132,-385.539 652.392,-380.706"/>
<polygon fill="black" stroke="black" points="652.216,-377.198 642.093,-380.324 651.956,-384.193 652.216,-377.198"/>
</g>
<!-- CommandBuffer&#45;&gt;Renderer -->
<g id="edge32" class="edge"><title>CommandBuffer&#45;&gt;Renderer</title>
<path fill="none" stroke="black" d="M1513.39,-463.764C1460.83,-477.156 1376,-497.963 1322.92,-510.456"/>
<polygon fill="black" stroke="black" points="1322.01,-507.075 1313.07,-512.764 1323.61,-513.891 1322.01,-507.075"/>
</g>
<!-- CommandBuffer&#45;&gt;Mesh -->
<g id="edge35" class="edge"><title>CommandBuffer&#45;&gt;Mesh</title>
<path fill="none" stroke="black" d="M1564.05,-431.622C1569.89,-404.967 1580,-352.311 1580,-307 1580,-307 1580,-307 1580,-233 1580,-165.523 1640.31,-168.969 1703,-144 1767.88,-118.157 1974.36,-100.418 2062.49,-93.8373"/>
<polygon fill="black" stroke="black" points="2062.92,-97.3153 2072.64,-93.0902 2062.41,-90.3342 2062.92,-97.3153"/>
</g>
<!-- CommandBuffer&#45;&gt;Material -->
<g id="edge34" class="edge"><title>CommandBuffer&#45;&gt;Material</title>
<path fill="none" stroke="black" d="M1507.09,-437.824C1473.14,-429.322 1428.86,-415.692 1393,-396 1371.15,-384.003 1371.42,-372.747 1350,-360 1320.9,-342.68 1285.1,-328.857 1257.83,-319.676"/>
<polygon fill="black" stroke="black" points="1258.79,-316.307 1248.2,-316.505 1256.6,-322.956 1258.79,-316.307"/>
</g>
<!-- RenderCommand -->
<g id="node33" class="node"><title>RenderCommand</title>
<ellipse fill="none" stroke="black" cx="1477" cy="-378" rx="75.2868" ry="18"/>
<text text-anchor="middle" x="1477" y="-374.3" font-family="Times New Roman,serif" font-size="14.00">RenderCommand</text>
</g>
<!-- CommandBuffer&#45;&gt;RenderCommand -->
<g id="edge36" class="edge"><title>CommandBuffer&#45;&gt;RenderCommand</title>
<path fill="none" stroke="black" d="M1540.33,-432.411C1529.58,-423.345 1516.1,-411.974 1504.34,-402.057"/>
<polygon fill="black" stroke="black" points="1506.43,-399.241 1496.53,-395.47 1501.92,-404.593 1506.43,-399.241"/>
</g>
<!-- MaterialLibrary&#45;&gt;RenderTarget -->
<g id="edge37" class="edge"><title>MaterialLibrary&#45;&gt;RenderTarget</title>
<path fill="none" stroke="black" d="M776.991,-443.328C695.949,-435.307 548.517,-419.017 424,-396 418.697,-395.02 413.194,-393.887 407.709,-392.682"/>
<polygon fill="black" stroke="black" points="408.43,-389.256 397.902,-390.45 406.876,-396.082 408.43,-389.256"/>
</g>
<!-- MaterialLibrary&#45;&gt;Resources -->
<g id="edge39" class="edge"><title>MaterialLibrary&#45;&gt;Resources</title>
<path fill="none" stroke="black" d="M844.091,-431.849C857.326,-394.583 888.784,-306.002 904.592,-261.49"/>
<polygon fill="black" stroke="black" points="907.937,-262.53 907.986,-251.935 901.341,-260.187 907.937,-262.53"/>
</g>
<!-- MaterialLibrary&#45;&gt;Material -->
<g id="edge38" class="edge"><title>MaterialLibrary&#45;&gt;Material</title>
<path fill="none" stroke="black" d="M864.331,-433.454C898.06,-414.069 958.772,-380.939 1014,-360 1066.3,-340.17 1128.93,-324.992 1170.44,-316.061"/>
<polygon fill="black" stroke="black" points="1171.2,-319.477 1180.26,-313.98 1169.75,-312.63 1171.2,-319.477"/>
</g>
<!-- MaterialLibrary&#45;&gt;Utils -->
<g id="edge40" class="edge"><title>MaterialLibrary&#45;&gt;Utils</title>
<path fill="none" stroke="black" d="M822.064,-432.516C800.208,-409.421 760.411,-365.584 732,-324 701.139,-278.83 672.434,-221.587 656.946,-188.946"/>
<polygon fill="black" stroke="black" points="659.997,-187.209 652.576,-179.647 653.661,-190.186 659.997,-187.209"/>
</g>
<!-- PBR&#45;&gt;Camera -->
<g id="edge52" class="edge"><title>PBR&#45;&gt;Camera</title>
<path fill="none" stroke="black" d="M928.459,-437.962C923.478,-435.733 918.132,-433.589 913,-432 864.708,-417.047 723.798,-395.888 650.111,-385.403"/>
<polygon fill="black" stroke="black" points="650.569,-381.933 640.177,-383.996 649.587,-388.864 650.569,-381.933"/>
</g>
<!-- PBR&#45;&gt;Renderer -->
<g id="edge41" class="edge"><title>PBR&#45;&gt;Renderer</title>
<path fill="none" stroke="black" d="M975.557,-458.718C984.052,-461.94 993.362,-465.506 1002,-468 1078.14,-489.989 1168.56,-505.117 1223.94,-513.419"/>
<polygon fill="black" stroke="black" points="1223.46,-516.886 1233.86,-514.89 1224.49,-509.961 1223.46,-516.886"/>
</g>
<!-- PBR&#45;&gt;RenderTarget -->
<g id="edge42" class="edge"><title>PBR&#45;&gt;RenderTarget</title>
<path fill="none" stroke="black" d="M928.956,-437.768C923.86,-435.491 918.34,-433.375 913,-432 701.966,-377.644 639.28,-429.829 424,-396 418.518,-395.139 412.833,-394.065 407.18,-392.879"/>
<polygon fill="black" stroke="black" points="407.611,-389.389 397.091,-390.643 406.097,-396.224 407.611,-389.389"/>
</g>
<!-- PBR&#45;&gt;PBRCapture -->
<g id="edge43" class="edge"><title>PBR&#45;&gt;PBRCapture</title>
<path fill="none" stroke="black" d="M928.535,-437.698C923.551,-435.482 918.184,-433.411 913,-432 759.553,-390.236 713.61,-423.631 557,-396 551.887,-395.098 546.588,-394.015 541.313,-392.839"/>
<polygon fill="black" stroke="black" points="541.787,-389.355 531.252,-390.483 540.191,-396.171 541.787,-389.355"/>
</g>
<!-- PBR&#45;&gt;Resources -->
<g id="edge44" class="edge"><title>PBR&#45;&gt;Resources</title>
<path fill="none" stroke="black" d="M947.115,-431.849C940.874,-394.753 926.08,-306.81 918.559,-262.103"/>
<polygon fill="black" stroke="black" points="922.009,-261.513 916.899,-252.232 915.106,-262.675 922.009,-261.513"/>
</g>
<!-- PBR&#45;&gt;Cube -->
<g id="edge45" class="edge"><title>PBR&#45;&gt;Cube</title>
<path fill="none" stroke="black" d="M977.08,-444.131C1000.12,-440.19 1034.12,-434.842 1064,-432 1447.05,-395.573 1550.56,-465.52 1929,-396 1934.51,-394.988 1940.24,-393.517 1945.78,-391.857"/>
<polygon fill="black" stroke="black" points="1947.03,-395.132 1955.46,-388.724 1944.87,-388.471 1947.03,-395.132"/>
</g>
<!-- PBR&#45;&gt;Sphere -->
<g id="edge46" class="edge"><title>PBR&#45;&gt;Sphere</title>
<path fill="none" stroke="black" d="M977.567,-444.291C1000.61,-440.499 1034.37,-435.278 1064,-432 1284.12,-407.65 1340.77,-419.42 1561,-396 1586.52,-393.286 1614.94,-389.341 1637.82,-385.934"/>
<polygon fill="black" stroke="black" points="1638.55,-389.365 1647.91,-384.413 1637.5,-382.443 1638.55,-389.365"/>
</g>
<!-- PBR&#45;&gt;Shader -->
<g id="edge50" class="edge"><title>PBR&#45;&gt;Shader</title>
<path fill="none" stroke="black" d="M935.746,-434.056C899.748,-395.434 804.652,-287.764 757,-180 748.281,-160.283 743.459,-136.299 740.856,-118.199"/>
<polygon fill="black" stroke="black" points="744.296,-117.506 739.538,-108.04 737.354,-118.407 744.296,-117.506"/>
</g>
<!-- PBR&#45;&gt;Material -->
<g id="edge49" class="edge"><title>PBR&#45;&gt;Material</title>
<path fill="none" stroke="black" d="M966.314,-435.109C989.179,-416.166 1032.61,-382.069 1074,-360 1105.99,-342.944 1144.67,-328.897 1173.57,-319.56"/>
<polygon fill="black" stroke="black" points="1174.89,-322.814 1183.37,-316.456 1172.77,-316.141 1174.89,-322.814"/>
</g>
<!-- PBR&#45;&gt;TextureCube -->
<g id="edge51" class="edge"><title>PBR&#45;&gt;TextureCube</title>
<path fill="none" stroke="black" d="M930.329,-436.543C913.966,-426.044 890.176,-410.463 870,-396 729.038,-294.954 567.2,-165.1 503.651,-113.544"/>
<polygon fill="black" stroke="black" points="505.666,-110.671 495.697,-107.083 501.252,-116.104 505.666,-110.671"/>
</g>
<!-- PBR&#45;&gt;Scene -->
<g id="edge47" class="edge"><title>PBR&#45;&gt;Scene</title>
<path fill="none" stroke="black" d="M958.392,-432.619C969.062,-413.144 989.122,-380.684 1014,-360 1071.79,-311.954 1096.15,-313.063 1167,-288 1407.53,-202.913 1715.78,-173.81 1826.8,-165.698"/>
<polygon fill="black" stroke="black" points="1827.19,-169.179 1836.92,-164.977 1826.7,-162.196 1827.19,-169.179"/>
</g>
<!-- PBR&#45;&gt;SceneNode -->
<g id="edge48" class="edge"><title>PBR&#45;&gt;SceneNode</title>
<path fill="none" stroke="black" d="M977.09,-444.229C1000.13,-440.346 1034.14,-435.031 1064,-432 1357.59,-402.205 1433.03,-421.8 1727,-396 1754.01,-393.629 1783.85,-390.129 1809.02,-386.919"/>
<polygon fill="black" stroke="black" points="1809.66,-390.365 1819.13,-385.613 1808.77,-383.422 1809.66,-390.365"/>
</g>
<!-- MeshLoader&#45;&gt;Renderer -->
<g id="edge83" class="edge"><title>MeshLoader&#45;&gt;Renderer</title>
<path fill="none" stroke="black" d="M1397.88,-178.83C1468.21,-233.022 1689.41,-410.897 1640,-468 1600.51,-513.634 1421.31,-520.801 1329.53,-521.407"/>
<polygon fill="black" stroke="black" points="1329.31,-517.908 1319.32,-521.45 1329.34,-524.908 1329.31,-517.908"/>
</g>
<!-- MeshLoader&#45;&gt;Resources -->
<g id="edge82" class="edge"><title>MeshLoader&#45;&gt;Resources</title>
<path fill="none" stroke="black" d="M1337.9,-175.18C1330.35,-176.928 1322.48,-178.603 1315,-180 1193.86,-202.632 1049.95,-219.577 971.603,-227.687"/>
<polygon fill="black" stroke="black" points="971.047,-224.226 961.456,-228.726 971.76,-231.19 971.047,-224.226"/>
</g>
<!-- MeshLoader&#45;&gt;Mesh -->
<g id="edge84" class="edge"><title>MeshLoader&#45;&gt;Mesh</title>
<path fill="none" stroke="black" d="M1430.38,-155.853C1569.43,-142.446 1940.48,-106.67 2063.07,-94.8502"/>
<polygon fill="black" stroke="black" points="2063.52,-98.3225 2073.14,-93.8789 2062.85,-91.3549 2063.52,-98.3225"/>
</g>
<!-- MeshLoader&#45;&gt;Material -->
<g id="edge85" class="edge"><title>MeshLoader&#45;&gt;Material</title>
<path fill="none" stroke="black" d="M1358.5,-179.32C1329.63,-204.777 1273.83,-253.993 1241.28,-282.703"/>
<polygon fill="black" stroke="black" points="1238.72,-280.294 1233.54,-289.533 1243.35,-285.543 1238.72,-280.294"/>
</g>
<!-- MeshLoader&#45;&gt;Texture -->
<g id="edge87" class="edge"><title>MeshLoader&#45;&gt;Texture</title>
<path fill="none" stroke="black" d="M1325.63,-154.415C1219.89,-140.858 979.308,-110.014 877.686,-96.9854"/>
<polygon fill="black" stroke="black" points="878.083,-93.5077 867.719,-95.7076 877.193,-100.451 878.083,-93.5077"/>
</g>
<!-- MeshLoader&#45;&gt;SceneNode -->
<g id="edge86" class="edge"><title>MeshLoader&#45;&gt;SceneNode</title>
<path fill="none" stroke="black" d="M1430.6,-167.923C1483.51,-174.198 1565.86,-187.818 1632,-216 1715.6,-251.622 1800.26,-319.054 1841.39,-354.279"/>
<polygon fill="black" stroke="black" points="1839.17,-356.984 1849.02,-360.875 1843.74,-351.688 1839.17,-356.984"/>
</g>
<!-- ShaderLoader&#45;&gt;Shader -->
<g id="edge99" class="edge"><title>ShaderLoader&#45;&gt;Shader</title>
<path fill="none" stroke="black" d="M1003.02,-150.239C993.434,-148.114 983.401,-145.942 974,-144 889.829,-126.617 866.819,-130.977 784,-108 781.059,-107.184 778.04,-106.264 775.023,-105.283"/>
<polygon fill="black" stroke="black" points="776.08,-101.946 765.486,-102.006 773.805,-108.566 776.08,-101.946"/>
</g>
<!-- TextureLoader&#45;&gt;Texture -->
<g id="edge100" class="edge"><title>TextureLoader&#45;&gt;Texture</title>
<path fill="none" stroke="black" d="M830.247,-143.697C830.357,-135.983 830.49,-126.712 830.613,-118.112"/>
<polygon fill="black" stroke="black" points="834.112,-118.153 830.756,-108.104 827.113,-118.053 834.112,-118.153"/>
</g>
<!-- TextureLoader&#45;&gt;TextureCube -->
<g id="edge101" class="edge"><title>TextureLoader&#45;&gt;TextureCube</title>
<path fill="none" stroke="black" d="M778.903,-150.896C713.795,-138.022 601.561,-115.828 533.517,-102.374"/>
<polygon fill="black" stroke="black" points="533.889,-98.8793 523.4,-100.373 532.531,-105.746 533.889,-98.8793"/>
</g>
<!-- Logger -->
<g id="node42" class="node"><title>Logger</title>
<ellipse fill="none" stroke="black" cx="2661" cy="-666" rx="36.2938" ry="18"/>
<text text-anchor="middle" x="2661" y="-662.3" font-family="Times New Roman,serif" font-size="14.00">Logger</text>
</g>
</g>
</svg>
